<svg width="31" height="43" viewBox="0 0 31 43" fill="none" xmlns="http://www.w3.org/2000/svg">
<path d="M16.4142 20.5858C15.6332 19.8047 14.3668 19.8047 13.5858 20.5858L0.857864 33.3137C0.0768155 34.0948 0.0768155 35.3611 0.857864 36.1421C1.63891 36.9232 2.90524 36.9232 3.68629 36.1421L15 24.8284L26.3137 36.1421C27.0948 36.9232 28.3611 36.9232 29.1421 36.1421C29.9232 35.3611 29.9232 34.0948 29.1421 33.3137L16.4142 20.5858ZM17 43L17 22L13 22L13 43L17 43Z" fill="#7953B3"/>
<path d="M1 7.435V4.9H9.06V7.435H6.46V14H3.6V7.435H1ZM13.1331 9.45C13.1331 9.892 13.2154 10.282 13.3801 10.62C13.5447 10.958 13.7787 11.2223 14.0821 11.413C14.3854 11.595 14.7494 11.686 15.1741 11.686C15.5987 11.686 15.9627 11.595 16.2661 11.413C16.5694 11.2223 16.8034 10.958 16.9681 10.62C17.1327 10.282 17.2151 9.892 17.2151 9.45C17.2151 8.99933 17.1371 8.60933 16.9811 8.28C16.8251 7.942 16.5954 7.682 16.2921 7.5C15.9974 7.30933 15.6247 7.214 15.1741 7.214C14.7494 7.214 14.3854 7.30933 14.0821 7.5C13.7787 7.682 13.5447 7.942 13.3801 8.28C13.2154 8.60933 13.1331 8.99933 13.1331 9.45ZM10.1041 9.45C10.1041 8.722 10.2341 8.06333 10.4941 7.474C10.7541 6.88467 11.1137 6.37767 11.5731 5.953C12.0324 5.52833 12.5697 5.20333 13.1851 4.978C13.8004 4.75267 14.4634 4.64 15.1741 4.64C15.9021 4.64 16.5737 4.75267 17.1891 4.978C17.8044 5.20333 18.3417 5.52833 18.8011 5.953C19.2604 6.37767 19.6157 6.88467 19.8671 7.474C20.1184 8.06333 20.2441 8.722 20.2441 9.45C20.2441 10.178 20.1184 10.8453 19.8671 11.452C19.6244 12.05 19.2777 12.57 18.8271 13.012C18.3764 13.454 17.8391 13.792 17.2151 14.026C16.5997 14.2687 15.9194 14.39 15.1741 14.39C14.4287 14.39 13.7441 14.2687 13.1201 14.026C12.5047 13.792 11.9717 13.454 11.5211 13.012C11.0704 12.57 10.7194 12.05 10.4681 11.452C10.2254 10.8453 10.1041 10.178 10.1041 9.45ZM22.842 4.9H25.702V14H22.842V4.9ZM24.688 7.175V4.9H26.417C27.3097 4.9 28.0334 5.02567 28.588 5.277C29.1514 5.52833 29.563 5.888 29.823 6.356C30.0917 6.81533 30.226 7.37 30.226 8.02C30.226 8.66133 30.0917 9.216 29.823 9.684C29.563 10.152 29.1514 10.5117 28.588 10.763C28.0334 11.0143 27.3097 11.14 26.417 11.14H24.688V8.865H26.417C26.7724 8.865 27.041 8.79133 27.223 8.644C27.405 8.49667 27.496 8.28867 27.496 8.02C27.496 7.75133 27.405 7.54333 27.223 7.396C27.041 7.24867 26.7724 7.175 26.417 7.175H24.688Z" fill="#7953B3"/>
</svg>
