<svg width="29" height="43" viewBox="0 0 29 43" fill="none" xmlns="http://www.w3.org/2000/svg">
<path d="M14.0607 20.9393C13.4749 20.3536 12.5251 20.3536 11.9393 20.9393L2.3934 30.4853C1.80761 31.0711 1.80761 32.0208 2.3934 32.6066C2.97918 33.1924 3.92893 33.1924 4.51472 32.6066L13 24.1213L21.4853 32.6066C22.0711 33.1924 23.0208 33.1924 23.6066 32.6066C24.1924 32.0208 24.1924 31.0711 23.6066 30.4853L14.0607 20.9393ZM14.5 43L14.5 22L11.5 22L11.5 43L14.5 43Z" fill="#7953B3"/>
<path d="M0.052 6.863V4.9H7.254V6.863H4.745V14H2.548V6.863H0.052ZM10.7086 9.45C10.7086 9.98733 10.8126 10.464 11.0206 10.88C11.2373 11.2873 11.5363 11.608 11.9176 11.842C12.3076 12.076 12.7626 12.193 13.2826 12.193C13.794 12.193 14.2403 12.076 14.6216 11.842C15.0116 11.608 15.3106 11.2873 15.5186 10.88C15.7353 10.464 15.8436 9.98733 15.8436 9.45C15.8436 8.91267 15.7396 8.44033 15.5316 8.033C15.3236 7.617 15.029 7.292 14.6476 7.058C14.2663 6.824 13.8113 6.707 13.2826 6.707C12.7626 6.707 12.3076 6.824 11.9176 7.058C11.5363 7.292 11.2373 7.617 11.0206 8.033C10.8126 8.44033 10.7086 8.91267 10.7086 9.45ZM8.38165 9.45C8.38165 8.748 8.50298 8.10667 8.74565 7.526C8.99698 6.94533 9.34365 6.44267 9.78565 6.018C10.2276 5.59333 10.7476 5.26833 11.3456 5.043C11.9436 4.809 12.5893 4.692 13.2826 4.692C13.9846 4.692 14.6303 4.809 15.2196 5.043C15.8176 5.26833 16.3376 5.59333 16.7796 6.018C17.2216 6.44267 17.564 6.94533 17.8066 7.526C18.0493 8.10667 18.1706 8.748 18.1706 9.45C18.1706 10.152 18.0493 10.7977 17.8066 11.387C17.5726 11.9763 17.2346 12.4877 16.7926 12.921C16.3593 13.3543 15.8436 13.6923 15.2456 13.935C14.6476 14.169 13.9933 14.286 13.2826 14.286C12.5633 14.286 11.9046 14.169 11.3066 13.935C10.7086 13.6923 10.1886 13.3543 9.74665 12.921C9.31332 12.4877 8.97532 11.9763 8.73265 11.387C8.49865 10.7977 8.38165 10.152 8.38165 9.45ZM20.8784 4.9H23.0754V14H20.8784V4.9ZM22.2564 6.707V4.9H24.0374C24.8087 4.9 25.4544 5.02133 25.9744 5.264C26.5031 5.498 26.9017 5.836 27.1704 6.278C27.4391 6.72 27.5734 7.253 27.5734 7.877C27.5734 8.48367 27.4391 9.01233 27.1704 9.463C26.9017 9.905 26.5031 10.2473 25.9744 10.49C25.4544 10.724 24.8087 10.841 24.0374 10.841H22.2564V9.034H24.0374C24.4794 9.034 24.8261 8.93433 25.0774 8.735C25.3287 8.53567 25.4544 8.24967 25.4544 7.877C25.4544 7.49567 25.3287 7.20533 25.0774 7.006C24.8261 6.80667 24.4794 6.707 24.0374 6.707H22.2564Z" fill="#7953B3"/>
</svg>
